<svg xmlns="http://www.w3.org/2000/svg" xmlns:xlink="http://www.w3.org/1999/xlink" data-name="Layer 2" viewBox="0 0 64 64"><defs><linearGradient id="c" x1="49" x2="49" y1="20" y2="48" gradientUnits="userSpaceOnUse"><stop offset="0" stop-color="#d6d6d6"/><stop offset="1" stop-color="#a1a1a1"/></linearGradient><linearGradient id="d" x1="46.44" x2="46.44" y1="24" y2="34" gradientUnits="userSpaceOnUse"><stop offset="0" stop-color="#42bfff"/><stop offset="1" stop-color="#1174ac"/></linearGradient><linearGradient id="e" x1="21" x2="21" y1="11" y2="48" gradientUnits="userSpaceOnUse"><stop offset="0" stop-color="#ffc033"/><stop offset="1" stop-color="#ef8e2e"/></linearGradient><linearGradient id="a" x1="48" x2="48" y1="41" y2="53" gradientUnits="userSpaceOnUse"><stop offset="0" stop-color="#002237"/><stop offset="1" stop-color="#003352"/></linearGradient><linearGradient id="f" x1="14" x2="14" xlink:href="#a"/><linearGradient id="b" x1="12.5" x2="15.5" y1="47" y2="47" gradientUnits="userSpaceOnUse"><stop offset="0" stop-color="#000406"/><stop offset="1" stop-color="#001521"/></linearGradient><linearGradient id="g" x1="46.5" x2="49.5" xlink:href="#b"/></defs><path fill="url(#c)" d="M56,32h-.22L53,20.76A1,1,0,0,0,52,20H38a1,1,0,0,0-1,1V47a1,1,0,0,0,1,1H56a5,5,0,0,0,5-5V37A5,5,0,0,0,56,32Z"/><path fill="url(#d)" d="M51.85,32.76l-2-8a1,1,0,0,0-1-.76H42a1,1,0,0,0-1,1v8a1,1,0,0,0,1,1h8.88A1,1,0,0,0,51.85,32.76Z"/><path fill="url(#e)" d="M38,11H4a1,1,0,0,0-1,1V43a5,5,0,0,0,5,5H38a1,1,0,0,0,1-1V12A1,1,0,0,0,38,11Z"/><circle cx="48" cy="47" r="6" fill="url(#a)"/><circle cx="14" cy="47" r="6" fill="url(#f)"/><circle cx="14" cy="47" r="1.5" fill="url(#b)"/><circle cx="48" cy="47" r="1.5" fill="url(#g)"/><rect width="36" height="2" x="3" y="37" fill="#b2500d"/></svg>