<svg width="480" height="480" xmlns="http://www.w3.org/2000/svg" xmlns:xlink="http://www.w3.org/1999/xlink" xml:space="preserve" overflow="hidden"><defs><clipPath id="clip0"><rect x="400" y="120" width="480" height="480"/></clipPath></defs><g clip-path="url(#clip0)" transform="translate(-400 -120)"><path d="M819 233 461 233C457.686 233 455 235.686 455 239L455 467C455 470.314 457.686 473 461 473L819 473C822.314 473 825 470.314 825 467L825 239C825 235.686 822.314 233 819 233Z" fill="#505050"/><path d="M466 233C462.686 233 460 235.686 460 239L460 467C460 470.314 462.686 473 466 473L623 473 623 233 466 233Z" fill="#737373"/><path d="M814 233 655 233 655 473 814 473C817.314 473 820 470.314 820 467L820 239C820 235.686 817.314 233 814 233Z" fill="#737373"/><path d="M484 233 577 233 577 256 484 256Z" fill="#505050"/><path d="M495 223.798 588 223.798 588 256 495 256Z" fill="#D2D2D2"/><path d="M551 454 731 454 731 479 551 479Z" fill="#D2D2D2"/><path d="M553 233 577 233 577 247 553 247Z" fill="#FFFFFF"/><path d="M478 251.4 477.6 452.2 481.762 458 796.3 458 800 453.8 800 252.6 796.25 248 481.737 248Z" fill="#F2F2F2"/><path d="M469 248 481.79 248 481.79 458 469 458Z" fill="#E6E6E6"/><path d="M809 458 796.21 458 796.21 248 809 248Z" fill="#E6E6E6"/><path d="M471.5 248 472.5 248 472.5 413 471.5 413Z" fill="#D2D2D2"/><path d="M474.5 248 475.5 248 475.5 413 474.5 413Z" fill="#D2D2D2"/><path d="M477.5 248 478.5 248 478.5 413 477.5 413Z" fill="#D2D2D2"/><path d="M805.5 248 806.5 248 806.5 458 805.5 458Z" fill="#D2D2D2"/><path d="M802.5 248 803.5 248 803.5 458 802.5 458Z" fill="#D2D2D2"/><path d="M799.5 248 800.5 248 800.5 458 799.5 458Z" fill="#D2D2D2"/><path d="M639 458 784.65 448.356 784.65 238.356 639 248Z" fill="#D2D2D2"/><path d="M639 458 766.141 442.643 766.141 232.643 639 248Z" fill="#FFFFFF"/><path d="M587 275 497 275C495.896 275 495 274.104 495 273 495 271.896 495.896 271 497 271L587 271C588.104 271 589 271.896 589 273 589 274.104 588.104 275 587 275Z" fill="#E6E6E6"/><path d="M587 289.5 497 289.5C495.896 289.5 495 288.604 495 287.5 495 286.396 495.896 285.5 497 285.5L587 285.5C588.104 285.5 589 286.396 589 287.5 589 288.604 588.104 289.5 587 289.5Z" fill="#E6E6E6"/><path d="M587 304 497 304C495.896 304 495 303.104 495 302 495 300.896 495.896 300 497 300L587 300C588.104 300 589 300.896 589 302 589 303.104 588.104 304 587 304Z" fill="#E6E6E6"/><path d="M587 318.5 497 318.5C495.896 318.5 495 317.604 495 316.5 495 315.396 495.896 314.5 497 314.5L587 314.5C588.104 314.5 589 315.396 589 316.5 589 317.604 588.104 318.5 587 318.5Z" fill="#E6E6E6"/><path d="M587 333 497 333C495.896 333 495 332.104 495 331 495 329.896 495.896 329 497 329L587 329C588.104 329 589 329.896 589 331 589 332.104 588.104 333 587 333Z" fill="#E6E6E6"/><path d="M552 347.5 497 347.5C495.896 347.5 495 346.604 495 345.5 495 344.396 495.896 343.5 497 343.5L552 343.5C553.104 343.5 554 344.396 554 345.5 554 346.604 553.104 347.5 552 347.5Z" fill="#E6E6E6"/><path d="M587 362 497 362C495.896 362 495 361.104 495 360 495 358.896 495.896 358 497 358L587 358C588.104 358 589 358.896 589 360 589 361.104 588.104 362 587 362Z" fill="#E6E6E6"/><path d="M587 376.5 497 376.5C495.896 376.5 495 375.604 495 374.5 495 373.396 495.896 372.5 497 372.5L587 372.5C588.104 372.5 589 373.396 589 374.5 589 375.604 588.104 376.5 587 376.5Z" fill="#E6E6E6"/><path d="M587 391 497 391C495.896 391 495 390.104 495 389 495 387.896 495.896 387 497 387L587 387C588.104 387 589 387.896 589 389 589 390.104 588.104 391 587 391Z" fill="#E6E6E6"/><path d="M587 405.5 497 405.5C495.896 405.5 495 404.604 495 403.5 495 402.396 495.896 401.5 497 401.5L587 401.5C588.104 401.5 589 402.396 589 403.5 589 404.604 588.104 405.5 587 405.5Z" fill="#E6E6E6"/><path d="M587 420 497 420C495.896 420 495 419.104 495 418 495 416.896 495.896 416 497 416L587 416C588.104 416 589 416.896 589 418 589 419.104 588.104 420 587 420Z" fill="#E6E6E6"/><path d="M659.498 275C658.519 275 657.664 274.281 657.521 273.284 657.364 272.191 658.123 271.177 659.216 271.02L749.716 258.02C750.812 257.859 751.823 258.622 751.98 259.715 752.137 260.808 751.378 261.822 750.285 261.979L659.785 274.979C659.688 274.994 659.592 275 659.498 275Z" fill="#E6E6E6"/><path d="M659.298 289.5C658.318 289.5 657.463 288.78 657.32 287.782 657.164 286.689 657.924 285.676 659.018 285.52L749.518 272.62C750.614 272.46 751.624 273.224 751.78 274.318 751.936 275.411 751.176 276.424 750.082 276.58L659.582 289.48C659.487 289.494 659.391 289.5 659.298 289.5Z" fill="#E6E6E6"/><path d="M659.098 304C658.117 304 657.261 303.278 657.12 302.279 656.965 301.185 657.727 300.173 658.82 300.019L749.32 287.219C750.415 287.059 751.426 287.825 751.58 288.919 751.735 290.013 750.973 291.025 749.88 291.179L659.38 303.979C659.285 303.994 659.191 304 659.098 304Z" fill="#E6E6E6"/><path d="M658.898 318.5C657.917 318.5 657.06 317.777 656.92 316.777 656.767 315.683 657.529 314.672 658.623 314.519L749.123 301.819C750.218 301.66 751.228 302.427 751.382 303.522 751.535 304.616 750.773 305.627 749.679 305.78L659.179 318.48C659.084 318.494 658.99 318.5 658.898 318.5Z" fill="#E6E6E6"/><path d="M658.698 333C657.716 333 656.859 332.276 656.72 331.275 656.568 330.181 657.331 329.171 658.425 329.019L748.925 316.419C750.02 316.261 751.029 317.03 751.182 318.124 751.334 319.218 750.571 320.228 749.477 320.38L658.977 332.98C658.882 332.994 658.789 333 658.698 333Z" fill="#E6E6E6"/><path d="M658.498 347.5C657.515 347.5 656.658 346.775 656.519 345.773 656.368 344.679 657.132 343.669 658.227 343.519L748.727 331.019C749.822 330.861 750.831 331.632 750.982 332.727 751.133 333.821 750.369 334.831 749.274 334.981L658.774 347.481C658.681 347.494 658.589 347.5 658.498 347.5Z" fill="#E6E6E6"/><path d="M658.298 362C657.314 362 656.456 361.273 656.319 360.271 656.169 359.177 656.935 358.168 658.029 358.018L748.529 345.618C749.624 345.461 750.632 346.233 750.782 347.328 750.932 348.422 750.166 349.431 749.072 349.581L658.572 361.981C658.479 361.994 658.388 362 658.298 362Z" fill="#E6E6E6"/><path d="M658.098 376.5C657.113 376.5 656.255 375.772 656.119 374.769 655.97 373.675 656.737 372.667 657.831 372.518L748.331 360.218C749.425 360.062 750.433 360.836 750.582 361.93 750.731 363.024 749.964 364.032 748.87 364.181L658.37 376.481C658.278 376.494 658.187 376.5 658.098 376.5Z" fill="#E6E6E6"/><path d="M657.898 391C656.912 391 656.054 390.271 655.918 389.267 655.77 388.173 656.538 387.166 657.633 387.018L748.133 374.818C749.227 374.662 750.235 375.438 750.382 376.533 750.53 377.627 749.762 378.634 748.667 378.782L658.167 390.982C658.077 390.994 657.986 391 657.898 391Z" fill="#E6E6E6"/><path d="M657.698 405.5C656.711 405.5 655.852 404.77 655.718 403.765 655.572 402.67 656.34 401.664 657.435 401.518L747.935 389.418C749.029 389.263 750.036 390.04 750.182 391.135 750.328 392.23 749.56 393.236 748.465 393.382L657.965 405.482C657.875 405.495 657.786 405.5 657.698 405.5Z" fill="#E6E6E6"/><path d="M657.498 420C656.51 420 655.651 419.269 655.518 418.263 655.373 417.168 656.143 416.163 657.238 416.018L747.738 404.018C748.832 403.864 749.839 404.643 749.984 405.738 750.129 406.833 749.359 407.838 748.264 407.983L657.764 419.983C657.674 419.995 657.585 420 657.498 420Z" fill="#E6E6E6"/><path d="M623 358.975 610 349.975 597 358.975 597 247.975 623 247.975Z" fill="#00B0F0"/></g></svg>